<mxfile host="app.diagrams.net" agent="Mozilla/5.0 (Windows NT 10.0; Win64; x64) AppleWebKit/537.36 (KHTML, like Gecko) Chrome/131.0.0.0 Safari/537.36" version="25.0.1">
  <diagram name="Page-1" id="2YBvvXClWsGukQMizWep">
    <mxGraphModel dx="1358" dy="586" grid="1" gridSize="10" guides="1" tooltips="1" connect="1" arrows="1" fold="1" page="1" pageScale="1" pageWidth="850" pageHeight="1100" math="0" shadow="0">
      <root>
        <mxCell id="0" />
        <mxCell id="1" parent="0" />
        <mxCell id="nmZueVbTwyarfk30x7Ma-2" value="User&lt;div&gt;&lt;br&gt;&lt;/div&gt;" style="shape=umlActor;verticalLabelPosition=bottom;verticalAlign=top;html=1;" vertex="1" parent="1">
          <mxGeometry x="70" y="60" width="30" height="60" as="geometry" />
        </mxCell>
        <mxCell id="nmZueVbTwyarfk30x7Ma-3" value="LoginPage: Login Page" style="shape=umlLifeline;perimeter=lifelinePerimeter;whiteSpace=wrap;html=1;container=1;dropTarget=0;collapsible=0;recursiveResize=0;outlineConnect=0;portConstraint=eastwest;newEdgeStyle={&quot;curved&quot;:0,&quot;rounded&quot;:0};" vertex="1" parent="1">
          <mxGeometry x="310" y="60" width="170" height="510" as="geometry" />
        </mxCell>
        <mxCell id="nmZueVbTwyarfk30x7Ma-10" value="" style="html=1;points=[[0,0,0,0,5],[0,1,0,0,-5],[1,0,0,0,5],[1,1,0,0,-5]];perimeter=orthogonalPerimeter;outlineConnect=0;targetShapes=umlLifeline;portConstraint=eastwest;newEdgeStyle={&quot;curved&quot;:0,&quot;rounded&quot;:0};" vertex="1" parent="nmZueVbTwyarfk30x7Ma-3">
          <mxGeometry x="70" y="120" width="30" height="110" as="geometry" />
        </mxCell>
        <mxCell id="nmZueVbTwyarfk30x7Ma-30" value="" style="html=1;points=[[0,0,0,0,5],[0,1,0,0,-5],[1,0,0,0,5],[1,1,0,0,-5]];perimeter=orthogonalPerimeter;outlineConnect=0;targetShapes=umlLifeline;portConstraint=eastwest;newEdgeStyle={&quot;curved&quot;:0,&quot;rounded&quot;:0};" vertex="1" parent="nmZueVbTwyarfk30x7Ma-3">
          <mxGeometry x="70" y="300" width="30" height="110" as="geometry" />
        </mxCell>
        <mxCell id="nmZueVbTwyarfk30x7Ma-33" value="" style="html=1;points=[[0,0,0,0,5],[0,1,0,0,-5],[1,0,0,0,5],[1,1,0,0,-5]];perimeter=orthogonalPerimeter;outlineConnect=0;targetShapes=umlLifeline;portConstraint=eastwest;newEdgeStyle={&quot;curved&quot;:0,&quot;rounded&quot;:0};" vertex="1" parent="nmZueVbTwyarfk30x7Ma-3">
          <mxGeometry x="70" y="435" width="30" height="55" as="geometry" />
        </mxCell>
        <mxCell id="nmZueVbTwyarfk30x7Ma-4" value="Authentication: Authentication Module" style="shape=umlLifeline;perimeter=lifelinePerimeter;whiteSpace=wrap;html=1;container=1;dropTarget=0;collapsible=0;recursiveResize=0;outlineConnect=0;portConstraint=eastwest;newEdgeStyle={&quot;curved&quot;:0,&quot;rounded&quot;:0};" vertex="1" parent="1">
          <mxGeometry x="620" y="60" width="150" height="510" as="geometry" />
        </mxCell>
        <mxCell id="nmZueVbTwyarfk30x7Ma-19" value="" style="html=1;points=[[0,0,0,0,5],[0,1,0,0,-5],[1,0,0,0,5],[1,1,0,0,-5]];perimeter=orthogonalPerimeter;outlineConnect=0;targetShapes=umlLifeline;portConstraint=eastwest;newEdgeStyle={&quot;curved&quot;:0,&quot;rounded&quot;:0};" vertex="1" parent="nmZueVbTwyarfk30x7Ma-4">
          <mxGeometry x="60" y="180" width="30" height="290" as="geometry" />
        </mxCell>
        <mxCell id="nmZueVbTwyarfk30x7Ma-6" value="" style="endArrow=none;dashed=1;html=1;rounded=0;" edge="1" parent="1" source="nmZueVbTwyarfk30x7Ma-7">
          <mxGeometry width="50" height="50" relative="1" as="geometry">
            <mxPoint x="85" y="360" as="sourcePoint" />
            <mxPoint x="85" y="140" as="targetPoint" />
          </mxGeometry>
        </mxCell>
        <mxCell id="nmZueVbTwyarfk30x7Ma-8" value="" style="endArrow=none;dashed=1;html=1;rounded=0;" edge="1" parent="1" source="nmZueVbTwyarfk30x7Ma-36" target="nmZueVbTwyarfk30x7Ma-7">
          <mxGeometry width="50" height="50" relative="1" as="geometry">
            <mxPoint x="80" y="600" as="sourcePoint" />
            <mxPoint x="85" y="140" as="targetPoint" />
          </mxGeometry>
        </mxCell>
        <mxCell id="nmZueVbTwyarfk30x7Ma-7" value="" style="html=1;points=[[0,0,0,0,5],[0,1,0,0,-5],[1,0,0,0,5],[1,1,0,0,-5]];perimeter=orthogonalPerimeter;outlineConnect=0;targetShapes=umlLifeline;portConstraint=eastwest;newEdgeStyle={&quot;curved&quot;:0,&quot;rounded&quot;:0};" vertex="1" parent="1">
          <mxGeometry x="80" y="190" width="10" height="100" as="geometry" />
        </mxCell>
        <mxCell id="nmZueVbTwyarfk30x7Ma-9" value="" style="endArrow=classic;html=1;rounded=0;" edge="1" parent="1">
          <mxGeometry width="50" height="50" relative="1" as="geometry">
            <mxPoint x="90" y="210" as="sourcePoint" />
            <mxPoint x="380" y="210" as="targetPoint" />
          </mxGeometry>
        </mxCell>
        <mxCell id="nmZueVbTwyarfk30x7Ma-12" value="username" style="text;html=1;align=center;verticalAlign=middle;resizable=0;points=[];autosize=1;strokeColor=none;fillColor=none;" vertex="1" parent="1">
          <mxGeometry x="200" y="185" width="80" height="30" as="geometry" />
        </mxCell>
        <mxCell id="nmZueVbTwyarfk30x7Ma-13" value="" style="endArrow=classic;html=1;rounded=0;" edge="1" parent="1">
          <mxGeometry width="50" height="50" relative="1" as="geometry">
            <mxPoint x="90" y="240" as="sourcePoint" />
            <mxPoint x="380" y="240" as="targetPoint" />
          </mxGeometry>
        </mxCell>
        <mxCell id="nmZueVbTwyarfk30x7Ma-14" value="Password" style="text;html=1;align=center;verticalAlign=middle;resizable=0;points=[];autosize=1;strokeColor=none;fillColor=none;" vertex="1" parent="1">
          <mxGeometry x="200" y="215" width="80" height="30" as="geometry" />
        </mxCell>
        <mxCell id="nmZueVbTwyarfk30x7Ma-16" value="" style="endArrow=classic;html=1;rounded=0;" edge="1" parent="1">
          <mxGeometry width="50" height="50" relative="1" as="geometry">
            <mxPoint x="90" y="270" as="sourcePoint" />
            <mxPoint x="380" y="270" as="targetPoint" />
          </mxGeometry>
        </mxCell>
        <mxCell id="nmZueVbTwyarfk30x7Ma-17" value="Login button" style="text;html=1;align=center;verticalAlign=middle;resizable=0;points=[];autosize=1;strokeColor=none;fillColor=none;" vertex="1" parent="1">
          <mxGeometry x="195" y="245" width="90" height="30" as="geometry" />
        </mxCell>
        <mxCell id="nmZueVbTwyarfk30x7Ma-20" value="" style="endArrow=classic;html=1;rounded=0;" edge="1" parent="1">
          <mxGeometry width="50" height="50" relative="1" as="geometry">
            <mxPoint x="410" y="275" as="sourcePoint" />
            <mxPoint x="680" y="275" as="targetPoint" />
          </mxGeometry>
        </mxCell>
        <mxCell id="nmZueVbTwyarfk30x7Ma-21" value="send user login info" style="text;html=1;align=center;verticalAlign=middle;resizable=0;points=[];autosize=1;strokeColor=none;fillColor=none;" vertex="1" parent="1">
          <mxGeometry x="475" y="248" width="130" height="30" as="geometry" />
        </mxCell>
        <mxCell id="nmZueVbTwyarfk30x7Ma-23" value="&lt;span style=&quot;font-size: 12px; text-align: center; background-color: rgb(251, 251, 251);&quot;&gt;validate info&lt;/span&gt;" style="html=1;align=left;spacingLeft=2;endArrow=block;rounded=0;edgeStyle=orthogonalEdgeStyle;curved=0;rounded=0;" edge="1" target="nmZueVbTwyarfk30x7Ma-19" parent="1">
          <mxGeometry relative="1" as="geometry">
            <mxPoint x="710" y="290" as="sourcePoint" />
            <Array as="points">
              <mxPoint x="740" y="290" />
              <mxPoint x="740" y="320" />
            </Array>
            <mxPoint x="715" y="320" as="targetPoint" />
          </mxGeometry>
        </mxCell>
        <mxCell id="nmZueVbTwyarfk30x7Ma-27" value="" style="shape=umlFrame;whiteSpace=wrap;html=1;pointerEvents=0;" vertex="1" parent="1">
          <mxGeometry x="40" y="370" width="770" height="200" as="geometry" />
        </mxCell>
        <mxCell id="nmZueVbTwyarfk30x7Ma-28" value="if valid" style="text;html=1;align=center;verticalAlign=middle;resizable=0;points=[];autosize=1;strokeColor=none;fillColor=none;" vertex="1" parent="1">
          <mxGeometry x="30" y="398" width="60" height="30" as="geometry" />
        </mxCell>
        <mxCell id="nmZueVbTwyarfk30x7Ma-29" value="" style="endArrow=none;dashed=1;html=1;rounded=0;exitX=0.002;exitY=0.549;exitDx=0;exitDy=0;exitPerimeter=0;" edge="1" parent="1" source="nmZueVbTwyarfk30x7Ma-27">
          <mxGeometry width="50" height="50" relative="1" as="geometry">
            <mxPoint x="270" y="495" as="sourcePoint" />
            <mxPoint x="810" y="480" as="targetPoint" />
          </mxGeometry>
        </mxCell>
        <mxCell id="nmZueVbTwyarfk30x7Ma-31" value="accepted" style="endArrow=open;endSize=12;dashed=1;html=1;rounded=0;entryX=1.081;entryY=0.397;entryDx=0;entryDy=0;entryPerimeter=0;" edge="1" parent="1" source="nmZueVbTwyarfk30x7Ma-19" target="nmZueVbTwyarfk30x7Ma-30">
          <mxGeometry x="0.0465" y="-14" width="160" relative="1" as="geometry">
            <mxPoint x="420" y="400" as="sourcePoint" />
            <mxPoint x="560" y="390" as="targetPoint" />
            <mxPoint as="offset" />
          </mxGeometry>
        </mxCell>
        <mxCell id="nmZueVbTwyarfk30x7Ma-32" value="&lt;span style=&quot;font-size: 12px; text-align: center; background-color: rgb(251, 251, 251);&quot;&gt;redirect to target page&lt;/span&gt;" style="html=1;align=left;spacingLeft=2;endArrow=block;rounded=0;edgeStyle=orthogonalEdgeStyle;curved=0;rounded=0;" edge="1" parent="1">
          <mxGeometry relative="1" as="geometry">
            <mxPoint x="410" y="428" as="sourcePoint" />
            <Array as="points">
              <mxPoint x="440" y="428" />
              <mxPoint x="440" y="458" />
            </Array>
            <mxPoint x="410" y="458" as="targetPoint" />
          </mxGeometry>
        </mxCell>
        <mxCell id="nmZueVbTwyarfk30x7Ma-34" value="rejected" style="endArrow=open;endSize=12;dashed=1;html=1;rounded=0;entryX=1.081;entryY=0.397;entryDx=0;entryDy=0;entryPerimeter=0;" edge="1" parent="1">
          <mxGeometry x="0.0465" y="-14" width="160" relative="1" as="geometry">
            <mxPoint x="678" y="520" as="sourcePoint" />
            <mxPoint x="410" y="520" as="targetPoint" />
            <mxPoint as="offset" />
          </mxGeometry>
        </mxCell>
        <mxCell id="nmZueVbTwyarfk30x7Ma-35" value="incorrect info" style="endArrow=open;endSize=12;dashed=1;html=1;rounded=0;" edge="1" parent="1" target="nmZueVbTwyarfk30x7Ma-36">
          <mxGeometry x="0.0465" y="-14" width="160" relative="1" as="geometry">
            <mxPoint x="380" y="530" as="sourcePoint" />
            <mxPoint x="130" y="530" as="targetPoint" />
            <mxPoint as="offset" />
          </mxGeometry>
        </mxCell>
        <mxCell id="nmZueVbTwyarfk30x7Ma-37" value="" style="endArrow=none;dashed=1;html=1;rounded=0;" edge="1" parent="1" target="nmZueVbTwyarfk30x7Ma-36">
          <mxGeometry width="50" height="50" relative="1" as="geometry">
            <mxPoint x="80" y="600" as="sourcePoint" />
            <mxPoint x="80" y="290" as="targetPoint" />
          </mxGeometry>
        </mxCell>
        <mxCell id="nmZueVbTwyarfk30x7Ma-36" value="" style="html=1;points=[[0,0,0,0,5],[0,1,0,0,-5],[1,0,0,0,5],[1,1,0,0,-5]];perimeter=orthogonalPerimeter;outlineConnect=0;targetShapes=umlLifeline;portConstraint=eastwest;newEdgeStyle={&quot;curved&quot;:0,&quot;rounded&quot;:0};" vertex="1" parent="1">
          <mxGeometry x="70" y="495" width="30" height="55" as="geometry" />
        </mxCell>
      </root>
    </mxGraphModel>
  </diagram>
</mxfile>
